<?xml version="1.0" encoding="UTF-8"?>
<svg width="30px" height="30px" viewBox="0 0 30 30" version="1.1" xmlns="http://www.w3.org/2000/svg" xmlns:xlink="http://www.w3.org/1999/xlink">
    <title>Facebook</title>
    <g id="Bituni-" stroke="none" stroke-width="1" fill="none" fill-rule="evenodd">
        <g id="Bituni" transform="translate(-230.000000, -650.000000)">
            <g id="编组-2" transform="translate(170.000000, 480.000000)">
                <g id="Facebook" transform="translate(60.000000, 170.000000)">
                    <rect id="矩形" x="0" y="0" width="30" height="30"></rect>
                    <path d="M26.6792338,1.875 C27.4758805,1.875 28.125,2.52411951 28.125,3.3207662 L28.125,3.3207662 L28.125,26.6792338 C28.125,27.4758805 27.4758805,28.125 26.6792338,28.125 L26.6792338,28.125 L26.6792338,28.1151649 L19.991,28.115 L19.9913357,17.9554608 L23.4041308,17.9554608 L23.9155583,13.9918977 L19.9913357,13.9918977 L19.9913357,11.4642656 C19.9913357,10.3135538 20.3060603,9.53657735 21.9583646,9.53657737 L24.0532503,9.53657737 L24.0532503,5.99592544 C23.6893499,5.94674973 22.4402866,5.83856312 20.9945204,5.83856312 C17.965296,5.83856312 15.8999157,7.68757024 15.8999157,11.0708599 L15.8999157,13.9918977 L12.4772855,13.9918977 L12.4772855,17.9554608 L15.8999157,17.9554608 L15.899,28.115 L3.3207662,28.1151649 C2.57098108,28.1151649 1.95187748,27.5401663 1.88163617,26.8083499 L1.875,26.6693987 L1.875,3.3207662 C1.875,2.52411951 2.52411951,1.875 3.3207662,1.875 L3.3207662,1.875 Z" id="形状结合" fill="#FFFFFF" fill-rule="nonzero"></path>
                </g>
            </g>
        </g>
    </g>
</svg>