<?xml version="1.0" encoding="UTF-8"?>
<svg width="99px" height="52px" viewBox="0 0 99 52" version="1.1" xmlns="http://www.w3.org/2000/svg" xmlns:xlink="http://www.w3.org/1999/xlink">
    <title>logo</title>
    <g id="Bituni-" stroke="none" stroke-width="1" fill="none" fill-rule="evenodd">
        <g id="Bituni未登录" transform="translate(-170.000000, -14.000000)">
            <g id="logo" transform="translate(170.000000, 14.000000)">
                <rect id="矩形" x="0" y="0" width="99" height="52"></rect>
                <g id="Bituni" transform="translate(0.000000, 13.000000)" fill="#09121B" fill-rule="nonzero">
                    <path d="M19.988,12.996 C21.014,11.704 21.66,10.07 21.66,8.322 C21.66,4.256 18.354,0.95 14.288,0.95 L0,0.95 L0,11.096 L0,15.656 L0,25.802 L15.048,25.802 C19.114,25.802 22.42,22.496 22.42,18.468 C22.42,16.302 21.47,14.326 19.988,12.996 Z M7.22,5.51 L11.628,5.51 C13.186,5.51 14.44,6.764 14.44,8.322 C14.44,9.842 13.186,11.096 11.628,11.096 L7.22,11.096 L7.22,5.51 Z M12.388,21.242 L7.22,21.242 L7.22,15.656 L12.388,15.656 C13.946,15.656 15.2,16.91 15.2,18.468 C15.2,19.988 13.946,21.242 12.388,21.242 Z" id="形状"></path>
                    <path d="M24.9934997,26.315 L31.0734997,26.315 L31.0734997,8.303 L24.9934997,8.303 L24.9934997,26.315 Z M28.0334997,0.513 C26.3614997,0.513 24.9934997,1.881 24.9934997,3.553 C24.9934997,5.263 26.3614997,6.593 28.0334997,6.593 C29.7054997,6.593 31.0734997,5.263 31.0734997,3.553 C31.0734997,1.881 29.7054997,0.513 28.0334997,0.513 Z" id="形状"></path>
                    <path d="M44.0744323,21.242 C43.2004323,21.242 42.5164323,20.52 42.5164323,19.646 L42.5164323,11.21 L46.5444323,11.21 L46.5444323,7.79 L42.5164323,7.79 L42.5164323,0.95 L36.4364323,4.332 L36.4364323,7.79 L33.9284323,7.79 L33.9284323,11.21 L36.4364323,11.21 L36.4364323,20.026 C36.4364323,23.218 38.6404323,25.802 42.9344323,25.802 C46.2404323,25.802 47.9504323,24.282 47.9504323,24.282 L45.1384323,20.824 C45.1384323,20.824 44.7204323,21.242 44.0744323,21.242 Z" id="路径"></path>
                    <path d="M61.4116849,18.278 C61.4116849,19.912 60.0816849,21.242 58.4476849,21.242 C56.8136849,21.242 55.4836849,19.912 55.4836849,18.278 L55.4836849,7.79 L49.4036849,7.79 L49.4036849,18.658 C49.4036849,24.624 54.1156849,25.802 58.0676849,25.802 C58.1816849,25.802 58.3336849,25.802 58.4476849,25.802 C58.5616849,25.802 58.7136849,25.802 58.8276849,25.802 C62.7796849,25.802 67.4916849,24.624 67.4916849,18.658 L67.4916849,7.79 L61.4116849,7.79 L61.4116849,18.278 Z" id="路径"></path>
                    <path d="M79.9052544,7.79 C79.7912544,7.79 79.2972544,7.79 79.1452544,7.79 C75.2312544,7.79 70.4812544,8.968 70.4812544,14.934 L70.4812544,25.802 L76.5612544,25.802 L76.5612544,15.314 C76.5612544,13.68 77.8912544,12.35 79.5252544,12.35 C81.1592544,12.35 82.4892544,13.68 82.4892544,15.314 L82.4892544,25.802 L88.5692544,25.802 L88.5692544,14.934 C88.5692544,8.968 83.8572544,7.79 79.9052544,7.79 Z" id="路径"></path>
                    <path d="M91.7797395,25.802 L97.8597395,25.802 L97.8597395,7.79 L91.7797395,7.79 L91.7797395,25.802 Z M94.8197395,0 C93.1477395,0 91.7797395,1.368 91.7797395,3.04 C91.7797395,4.75 93.1477395,6.08 94.8197395,6.08 C96.4917395,6.08 97.8597395,4.75 97.8597395,3.04 C97.8597395,1.368 96.4917395,0 94.8197395,0 Z" id="形状"></path>
                </g>
            </g>
        </g>
    </g>
</svg>