<svg width="20" height="20" xmlns="http://www.w3.org/2000/svg"><g fill="none" fill-rule="evenodd"><path d="M0 0h20v20H0z"/><circle stroke="#09121B" stroke-width="1.333" cx="10" cy="10" r="7.667"/><path d="M2.512 8.36c.605.604 1.443.604 2.513 0 1.07-.605 2.143-.605 3.22 0 .454.308.785.855.994 1.64.208.785-.002 1.64-.63 2.564-.217.59-.217 1.047 0 1.375.216.328.68.444 1.391.35 1.002-.194 1.793-.111 2.373.248.869.538.872 2.017.39 2.708M10.698 2.415c-.559 1.665-.12 2.883 1.315 3.655 1.121.568 1.96.267 2.648 1.052.459.522.459 1.262 0 2.217-.271.776.038 1.248.928 1.417.89.169 1.565.169 2.027 0" stroke="#09121B" stroke-width="1.333"/></g></svg>