<svg width="20" height="20" xmlns="http://www.w3.org/2000/svg"><g fill="none" fill-rule="evenodd"><path d="M0 0h20v20H0z"/><path d="M15.417 3.167a.997.997 0 011 1h0v12.5a.997.997 0 01-1 1h0H4.583a.997.997 0 01-1-1h0v-12.5a.997.997 0 011-1h0z" stroke="#09121B" stroke-width="1.333"/><rect fill="#09121B" transform="rotate(-90 9.917 9.167)" x="9.167" y="5.833" width="1.5" height="6.667" rx=".75"/><rect fill="#09121B" transform="rotate(-90 8.25 12.5)" x="7.5" y="10.833" width="1.5" height="3.333" rx=".75"/><path d="M6.917 2.083l6-.166L13.083 5l-6 .167-.166-3.084z" stroke="#09121B" stroke-width="1.333" fill="#FFF"/></g></svg>