<?xml version="1.0" encoding="UTF-8"?>
<svg width="20px" height="20px" viewBox="0 0 20 20" version="1.1" xmlns="http://www.w3.org/2000/svg" xmlns:xlink="http://www.w3.org/1999/xlink">
    <title>切片</title>
    <g id="Bituni-" stroke="none" stroke-width="1" fill="none" fill-rule="evenodd">
        <g id="Bituni未登录" transform="translate(-1240.000000, -215.000000)">
            <g id="编组-15" transform="translate(1134.000000, 67.000000)">
                <g id="法律与隐私icon" transform="translate(106.000000, 148.000000)">
                    <rect id="矩形" x="0" y="0" width="20" height="20"></rect>
                    <path d="M15.4166667,3.16666667 C15.692809,3.16666667 15.942809,3.27859548 16.1237734,3.45955989 C16.3047379,3.64052429 16.4166667,3.89052429 16.4166667,4.16666667 L16.4166667,4.16666667 L16.4166667,16.6666667 C16.4166667,16.942809 16.3047379,17.192809 16.1237734,17.3737734 C15.942809,17.5547379 15.692809,17.6666667 15.4166667,17.6666667 L15.4166667,17.6666667 L4.58333333,17.6666667 C4.30719096,17.6666667 4.05719096,17.5547379 3.87622655,17.3737734 C3.69526215,17.192809 3.58333333,16.942809 3.58333333,16.6666667 L3.58333333,16.6666667 L3.58333333,4.16666667 C3.58333333,3.89052429 3.69526215,3.64052429 3.87622655,3.45955989 C4.05719096,3.27859548 4.30719096,3.16666667 4.58333333,3.16666667 L4.58333333,3.16666667 Z" id="Rectangle" stroke="#09121B" stroke-width="1.33333333" fill-rule="nonzero"></path>
                    <rect id="Rectangle" fill="#09121B" transform="translate(9.916667, 9.166667) rotate(-90.000000) translate(-9.916667, -9.166667) " x="9.16666667" y="5.83333333" width="1.5" height="6.66666667" rx="0.75"></rect>
                    <rect id="Rectangle" fill="#09121B" transform="translate(8.250000, 12.500000) rotate(-90.000000) translate(-8.250000, -12.500000) " x="7.5" y="10.8333333" width="1.5" height="3.33333333" rx="0.75"></rect>
                    <path d="M11.4583333,0.458333333 L11.625,6.45833333 L8.54166667,6.625 L8.375,0.625 L11.4583333,0.458333333 Z" id="Rectangle备份" stroke="#09121B" stroke-width="1.33333333" fill="#FFFFFF" transform="translate(10.000000, 3.541667) rotate(-90.000000) translate(-10.000000, -3.541667) "></path>
                </g>
            </g>
        </g>
    </g>
</svg>