<?xml version="1.0" encoding="UTF-8"?>
<svg width="20px" height="20px" viewBox="0 0 20 20" version="1.1" xmlns="http://www.w3.org/2000/svg" xmlns:xlink="http://www.w3.org/1999/xlink">
    <title>切片</title>
    <g id="Bituni-" stroke="none" stroke-width="1" fill="none" fill-rule="evenodd">
        <g id="Bituni未登录" transform="translate(-1240.000000, -135.000000)">
            <g id="编组-15" transform="translate(1134.000000, 67.000000)">
                <g id="帮助icon" transform="translate(106.000000, 68.000000)">
                    <rect id="矩形" x="0" y="0" width="20" height="20"></rect>
                    <path d="M4.64285714,11.3809524 C5.14911816,11.3809524 5.6074515,11.5861552 5.93921958,11.9179233 C6.27098765,12.2496914 6.47619048,12.7080247 6.47619048,13.2142857 L6.47619048,13.2142857 L6.47619048,15.1785714 C6.47619048,15.6355213 6.29097494,16.0492118 5.99152194,16.3486648 C5.69206893,16.6481178 5.27837845,16.8333333 4.82142857,16.8333333 L4.82142857,16.8333333 L3.99999996,16.8333333 C3.76988133,16.8333333 3.561548,16.7400593 3.41074434,16.5892557 C3.25994067,16.438452 3.16666667,16.2301187 3.16666667,16 L3.16666667,16 L3.16666667,11.3809524 Z" id="矩形备份-15" stroke="#09121B" stroke-width="1.33333333"></path>
                    <path d="M16.8333333,11.3809524 L16.8333333,16 C16.8333333,16.2301187 16.7400593,16.438452 16.5892557,16.5892557 C16.438452,16.7400593 16.2301187,16.8333333 16,16.8333333 L16,16.8333333 L15.1785714,16.8333333 C14.7216215,16.8333333 14.3079311,16.6481178 14.0084781,16.3486648 C13.7090251,16.0492118 13.5238095,15.6355213 13.5238095,15.1785714 L13.5238095,15.1785714 L13.5238095,13.2142857 C13.5238095,12.7080247 13.7290123,12.2496914 14.0607804,11.9179233 C14.3925485,11.5861552 14.8508818,11.3809524 15.3571429,11.3809524 L15.3571429,11.3809524 L16.8333333,11.3809524 Z" id="矩形备份-16" stroke="#09121B" stroke-width="1.33333333"></path>
                    <path d="M16.1749299,10.2860119 L16.1753466,9.28571429 L16.173956,9.15524057 C16.1045461,5.90177898 13.2701071,3.14337418 10,3.14337418 L10,3.14337418 L9.86952628,3.14476472 C6.6160647,3.21417469 3.83320831,6.01560721 3.83320831,9.28571429 L3.83320831,9.28571429 L3.83279165,10.2860119 L3.832,11.7857143 L2.5,11.7857143 L2.5,9.28571429 C2.5,5.14357866 5.85786438,1.78571429 10,1.78571429 C14.1421356,1.78571429 17.5,5.14357866 17.5,9.28571429 L17.5,9.28571429 L17.5,11.7857143 L16.176,11.7857143 L16.1761093,10.2860119 L16.1749299,10.2860119 Z" id="形状结合" fill="#09121B" fill-rule="nonzero"></path>
                </g>
            </g>
        </g>
    </g>
</svg>