<svg width="28" height="28" xmlns="http://www.w3.org/2000/svg"><g fill="none" fill-rule="evenodd"><path d="M28 0v28H0V0z"/><path d="M.933 14c0-.446.022-.892.066-1.336.084-.866.258-1.72.518-2.55a13.031 13.031 0 011.644-3.422A13.137 13.137 0 017.768 2.51c.368-.196.755-.386 1.143-.55a13.155 13.155 0 012.453-.762 13.235 13.235 0 016.522.322 12.859 12.859 0 012.344.99 13.137 13.137 0 015.26 5.26 13.097 13.097 0 011.312 3.596c.088.43.153.863.196 1.299.136 1.326.07 2.664-.196 3.97a13.49 13.49 0 01-.322 1.253c-.126.41-.274.81-.44 1.201a12.76 12.76 0 01-.55 1.143 13.125 13.125 0 01-5.26 5.26 14.04 14.04 0 01-1.143.55 13.078 13.078 0 01-2.453.762 13.235 13.235 0 01-6.522-.322 13.037 13.037 0 01-3.421-1.644 13.125 13.125 0 01-4.184-4.606 14.245 14.245 0 01-.55-1.143A12.887 12.887 0 01.934 14zM12.71 7.096a1.142 1.142 0 10-2.283 0v11.11l-.723-.723a1.14 1.14 0 00-1.612 1.612l2.67 2.67.02.02.02.018a.078.078 0 00.01.009l.01.008a.118.118 0 00.012.011l.013.011a.167.167 0 00.025.02l.009.007a.04.04 0 01.008.007l.014.01.016.013.009.005.008.005.015.01c.004.004.01.007.015.01a.048.048 0 01.016.01l.014.01.015.008a.056.056 0 01.017.012l.008.003a.096.096 0 00.022.01c.006.002.011.005.015.009a.093.093 0 00.023.01.01.01 0 00.004 0 .108.108 0 01.012.005.104.104 0 00.012.006l.026.009.014.005c.004 0 .01.004.013.005.004.002.008 0 .011.005l.01.004a.17.17 0 01.021.008l.01.004h.02l.034.009a.037.037 0 00.016 0l.017.004.017.004h.019a.155.155 0 00.059.005.118.118 0 00.033 0h.014a.1.1 0 00.013 0 .07.07 0 01.012 0H11.553a.436.436 0 00.056 0c.009.002.018.002.027 0 .01.002.018.002.028 0a.14.14 0 00.017 0h.016a.06.06 0 00.011 0H11.737a.08.08 0 00.018 0h.008a.03.03 0 01.012 0l.017-.003.017-.004a.037.037 0 01.016 0l.033-.01h.02a.108.108 0 00.03-.011l.01-.004a.106.106 0 00.012-.005l.013-.005c.005 0 .01-.004.014-.005l.025-.009a.088.088 0 00.012-.006.108.108 0 01.013-.006l.013-.005c.005 0 .01-.004.014-.005h.004a.052.052 0 00.015-.01h.007a.093.093 0 01.022-.01.065.065 0 00.016-.011c.006 0 .01-.006.015-.009l.015-.008a.06.06 0 00.016-.011.095.095 0 00.014-.01.09.09 0 01.015-.01.048.048 0 00.009-.005.044.044 0 01.008-.006.135.135 0 00.021-.014.061.061 0 01.01-.007.05.05 0 01.007-.007l.009-.007.012-.01.013-.01a.08.08 0 00.011-.01.055.055 0 01.011-.01.048.048 0 01.01-.009l.01-.008a.237.237 0 01.021-.02l.02-.018.02-.02.02-.021.007-.01.009-.01a.073.073 0 01.01-.011l.01-.011a.171.171 0 00.018-.024.035.035 0 00.008-.009l.006-.008.011-.015.012-.015.005-.009.005-.008a.125.125 0 01.01-.015.116.116 0 00.01-.015.065.065 0 01.011-.016l.009-.015.008-.015a.058.058 0 01.011-.017l.004-.008a.086.086 0 00.01-.022v-.005a.054.054 0 01.01-.015.09.09 0 00.009-.023v-.004a.058.058 0 01.006-.013l.005-.013.009-.025.005-.013.005-.015.004-.01.004-.011a.125.125 0 01.007-.02l.004-.011v-.01a.03.03 0 010-.01l.008-.034v-.02l.004-.017.004-.018v-.02a.155.155 0 00.006-.036v-.023a.13.13 0 000-.034v-.108l.06-13.878zm7.542 2.61c0-.302-.12-.592-.334-.805l-2.67-2.67-.021-.02a.538.538 0 01-.02-.02l-.01-.007a.08.08 0 01-.01-.009.055.055 0 01-.01-.01.052.052 0 00-.012-.01.169.169 0 00-.025-.019l-.008-.007-.008-.007-.015-.011-.016-.012a.044.044 0 01-.008-.005.048.048 0 00-.009-.006.124.124 0 01-.015-.01.116.116 0 00-.014-.01.054.054 0 01-.017-.011l-.015-.009A.158.158 0 0017 6.04a.053.053 0 01-.017-.012l-.008-.004a.13.13 0 00-.022-.01.042.042 0 01-.015-.009.098.098 0 00-.022-.01h-.004a.098.098 0 01-.013-.005.065.065 0 00-.012-.006l-.025-.008a.08.08 0 01-.014-.006l-.013-.005-.012-.005-.01-.004a.11.11 0 01-.02-.008l-.011-.003h-.02l-.033-.009a.038.038 0 00-.017 0c-.006 0-.013 0-.02-.005h-.033a.188.188 0 00-.058-.005.162.162 0 00-.034 0 .1.1 0 01-.013 0h-.095a.386.386 0 00-.056 0 .072.072 0 00-.022 0h-.008a.083.083 0 00-.027 0 .14.14 0 00-.017 0h-.016a.06.06 0 00-.011 0h-.011a.13.13 0 01-.018 0 .13.13 0 00-.018 0h-.02l-.014.004h-.039l-.033.009h-.02a.1.1 0 00-.03.01l-.011.005-.012.004c-.003 0-.008.004-.013.005-.005 0-.01.005-.014.006l-.025.009a.107.107 0 00-.013.005.102.102 0 01-.012.005l-.013.006a.13.13 0 01-.013.005h-.004a.039.039 0 00-.015.009l-.009.005a.09.09 0 01-.022.01.06.06 0 00-.016.01l-.016.009-.014.008a.061.061 0 00-.017.012.12.12 0 00-.015.01.077.077 0 01-.015.01l-.008.005a.065.065 0 01-.009.006.13.13 0 00-.02.014l-.01.007-.008.008a.04.04 0 00-.008.007.102.102 0 00-.013.01.092.092 0 01-.013.01.065.065 0 00-.01.01l-.012.009-.01.009-.01.008-.02.019-.02.019-.02.02a.216.216 0 01-.018.02l-.009.01-.008.01a.078.078 0 01-.01.012.083.083 0 00-.01.012.171.171 0 00-.019.024l-.007.008a.044.044 0 01-.007.009l-.011.015-.011.015-.005.008-.006.009a.09.09 0 01-.01.015l-.01.014a.053.053 0 01-.011.017l-.009.015-.008.015a.058.058 0 01-.011.017l-.004.008a.086.086 0 00-.01.022v.004a.043.043 0 01-.009.015.09.09 0 00-.01.023v.005l-.005.012-.005.013-.009.024-.006.014-.005.014-.004.011-.004.012-.007.02-.004.01a.03.03 0 000 .01v.01l-.008.034v.02l-.004.017-.004.017v.02a.155.155 0 00-.006.036v.023a.13.13 0 000 .033v13.976a1.142 1.142 0 102.283 0V9.781l.723.723a1.14 1.14 0 001.947-.805l-.056.007z" fill="#0090FF" fill-rule="nonzero"/></g></svg>