<?xml version="1.0" encoding="UTF-8"?>
<svg width="16px" height="16px" viewBox="0 0 16 16" version="1.1" xmlns="http://www.w3.org/2000/svg" xmlns:xlink="http://www.w3.org/1999/xlink">
    <title>切片</title>
    <defs>
        <path d="M9.21068157,8.00054377 L14.748952,2.4627515 C15.0836827,2.12778684 15.0836827,1.58618815 14.748952,1.25339859 C14.4142214,0.918433931 13.8730011,0.918433931 13.540444,1.25339859 L8,6.78901577 L2.45955597,1.25122349 C2.12482534,0.916258836 1.58360503,0.916258836 1.25104797,1.25122349 C0.916317342,1.58618815 0.916317342,2.12778684 1.25104797,2.4605764 L6.78931843,7.99836868 L1.25104797,13.5383361 C0.916317342,13.8733007 0.916317342,14.4148994 1.25104797,14.747689 C1.41841329,14.9151713 1.63794442,14.9978249 1.85530197,14.9978249 C2.0748331,14.9978249 2.29219065,14.9151713 2.45955597,14.747689 L8,9.20989668 L13.540444,14.7498641 C13.7078093,14.9173464 13.9251669,15 14.144698,15 C14.3642292,15 14.5815867,14.9173464 14.748952,14.7498641 C15.0836827,14.4148994 15.0836827,13.8733007 14.748952,13.5405111 L9.21068157,8.00054377 Z" id="path-1"></path>
    </defs>
    <g id="Bituni-" stroke="none" stroke-width="1" fill="none" fill-rule="evenodd">
        <g id="登录" transform="translate(-962.000000, -264.000000)">
            <g id="编组-6" transform="translate(406.000000, 240.000000)">
                <g id="Icon/Close" transform="translate(556.000000, 24.000000)">
                    <rect id="矩形" x="0" y="0" width="16" height="16"></rect>
                    <mask id="mask-2" fill="white">
                        <use xlink:href="#path-1"></use>
                    </mask>
                    <use id="Mask" fill="#CED3D9" fill-rule="nonzero" xlink:href="#path-1"></use>
                </g>
            </g>
        </g>
    </g>
</svg>