<?xml version="1.0" encoding="UTF-8"?>
<svg width="64px" height="64px" viewBox="0 0 64 64" version="1.1" xmlns="http://www.w3.org/2000/svg" xmlns:xlink="http://www.w3.org/1999/xlink">
    <title>切片</title>
    <g id="Bituni-" stroke="none" stroke-width="1" fill="none" fill-rule="evenodd">
        <g id="订单支付失败" transform="translate(-688.000000, -358.000000)">
            <g id="编组-6" transform="translate(422.000000, 240.000000)">
                <g id="错误icon" transform="translate(266.000000, 118.000000)">
                    <rect id="矩形" x="0" y="0" width="64" height="64"></rect>
                    <circle id="形状结合" fill="#EF3F3F" cx="32" cy="32" r="26.6666667"></circle>
                    <path d="M42.5368147,21.3731052 C43.3699332,22.2062237 43.3699332,23.5569757 42.5368147,24.3900942 L35.1821769,31.7432664 L42.5368147,39.0979152 C43.3282772,39.8893778 43.3678504,41.1480046 42.6555341,41.9861835 L42.5368147,42.1149042 C41.7036962,42.9480226 40.3529442,42.9480226 39.5198257,42.1149042 L39.5198257,42.1149042 L32.1651769,34.7602664 L24.8120047,42.1149042 C23.9788862,42.9480226 22.6281342,42.9480226 21.7950158,42.1149042 C20.9618973,41.2817857 20.9618973,39.9310337 21.7950158,39.0979152 L29.1481769,31.7432664 L21.7950158,24.3900942 C21.0035532,23.5986316 20.9639801,22.3400048 21.6762964,21.5018259 L21.7950158,21.3731052 C22.6281342,20.5399867 23.9788862,20.5399867 24.8120047,21.3731052 L24.8120047,21.3731052 L32.1651769,28.7262664 L39.5198257,21.3731052 C40.3529442,20.5399867 41.7036962,20.5399867 42.5368147,21.3731052 Z" id="形状结合" fill="#FFFFFF"></path>
                </g>
            </g>
        </g>
    </g>
</svg>