<?xml version="1.0" encoding="UTF-8"?>
<svg width="30px" height="30px" viewBox="0 0 30 30" version="1.1" xmlns="http://www.w3.org/2000/svg" xmlns:xlink="http://www.w3.org/1999/xlink">
    <title>tuite</title>
    <g id="Bituni-" stroke="none" stroke-width="1" fill="none" fill-rule="evenodd">
        <g id="Bituni" transform="translate(-170.000000, -650.000000)">
            <g id="编组-2" transform="translate(170.000000, 480.000000)">
                <g id="tuite" transform="translate(0.000000, 170.000000)">
                    <rect id="矩形" x="0" y="0" width="30" height="30"></rect>
                    <path d="M29.0625,6.39066849 C28.0081435,6.85299306 26.889462,7.15683514 25.74375,7.29206529 C26.9469807,6.58049788 27.8466647,5.46161803 28.275,4.14411033 C27.140449,4.80886033 25.899202,5.27784409 24.6046875,5.53087463 C22.9819151,3.8373599 20.4756197,3.29160698 18.280589,4.15378426 C16.0855583,5.01596153 14.646105,7.11154916 14.6484375,9.44154995 C14.65037,9.87583272 14.7022645,10.308497 14.803125,10.7312407 C10.1590445,10.4986206 5.8339966,8.33077111 2.90625,4.76815427 C2.3913053,5.63460132 2.11950117,6.62059777 2.11875,7.62488872 C2.06685333,9.50872429 2.9883852,11.2896902 4.565625,12.353755 C3.609375,12.3260197 1.8234375,12.0764021 1.8234375,11.6465052 L1.8234375,11.7158434 C1.89664316,14.4337769 3.8712845,16.73825 6.5765625,17.2629006 C6.11876147,17.3895084 5.64576997,17.4548097 5.1703125,17.4570476 C4.81639734,17.4583245 4.4631878,17.4258151 4.115625,17.3599741 C4.87683404,19.6781585 7.04515532,21.2651602 9.515625,21.3122523 C7.47523849,22.9082947 4.94809464,23.7780957 2.34375,23.7806928 C1.87375576,23.7800222 1.40420373,23.7522395 0.9375,23.6974869 C3.57660779,25.36733 6.64718497,26.2531129 9.7828125,26.2491332 C14.1541634,26.2938727 18.3604961,24.6049968 21.4569584,21.5618711 C24.5534208,18.5187455 26.2804103,14.376501 26.25,10.0655939 L26.25,9.33060881 C27.355218,8.52101784 28.3072521,7.52584504 29.0625,6.39066849 Z" id="路径" fill="#FFFFFF" fill-rule="nonzero"></path>
                </g>
            </g>
        </g>
    </g>
</svg>

